<svg width="9" height="5" viewBox="0 0 9 5" fill="none" xmlns="http://www.w3.org/2000/svg">
<path id="Path 6" d="M8.82907 0.165352C8.77822 0.112807 8.71706 0.0710466 8.64931 0.042618C8.58157 0.0141895 8.50871 -0.000309141 8.4351 4.99757e-06H0.559823C0.448831 0.000136024 0.340322 0.0328008 0.248155 0.093865C0.155987 0.154929 0.0842612 0.24164 0.0420593 0.343006C-0.000142637 0.444371 -0.0108658 0.555826 0.011157 0.663243C0.0331798 0.770661 0.0869822 0.869206 0.165789 0.946382L4.10589 4.83694C4.15732 4.88858 4.21867 4.92959 4.28632 4.95758C4.35396 4.98558 4.42658 5 4.49993 5C4.57328 5 4.64589 4.98558 4.71354 4.95758C4.78118 4.92959 4.84247 4.88858 4.8939 4.83694L8.83401 0.946382C8.88655 0.895736 8.92833 0.835223 8.95683 0.768409C8.98534 0.701594 9 0.629826 9 0.557325C9 0.484823 8.98534 0.413055 8.95683 0.346241C8.92833 0.279427 8.88655 0.218914 8.83401 0.168268L8.82907 0.165352Z" fill="black"/>
</svg>
