<svg width="20" height="20" viewBox="0 0 20 20" fill="none" xmlns="http://www.w3.org/2000/svg">
<path id="Path 4" d="M19.5799 17.6581L13.9004 12.07C15.0402 10.5475 15.5603 8.66073 15.3583 6.78026C15.1563 4.8998 14.247 3.16161 12.8089 1.90719C11.3708 0.652772 9.5079 -0.0272106 7.58627 0.000834175C5.66463 0.0288789 3.82312 0.76292 2.42349 2.05875C1.02386 3.35459 0.167241 5.11855 0.0220241 7.00408C-0.123193 8.88961 0.453544 10.7604 1.63873 12.249C2.82392 13.7375 4.5319 14.7362 6.4273 15.0489C8.32269 15.3615 10.2685 14.9655 11.8823 13.9386L17.6184 19.5839C17.7462 19.7141 17.899 19.8179 18.0681 19.8893C18.2371 19.9608 18.4188 19.9984 18.6027 19.9999C18.7867 20.0015 18.969 19.967 19.1393 19.8985C19.3095 19.83 19.4642 19.7288 19.5943 19.6008C19.7244 19.4728 19.8272 19.3207 19.8968 19.1532C19.9665 18.9857 20.0015 18.8062 19.9999 18.6252C19.9984 18.4442 19.9601 18.2654 19.8875 18.0991C19.8149 17.9328 19.7093 17.7824 19.577 17.6567L19.5799 17.6581ZM2.78688 7.57233C2.78688 6.61269 3.07611 5.67459 3.61797 4.87667C4.15984 4.07876 4.92998 3.45685 5.83107 3.08961C6.73216 2.72237 7.72371 2.62628 8.6803 2.8135C9.63689 3.00072 10.5155 3.46283 11.2052 4.14141C11.8949 4.81998 12.3646 5.68453 12.5549 6.62574C12.7452 7.56695 12.6475 8.54254 12.2742 9.42914C11.901 10.3157 11.2689 11.0735 10.458 11.6067C9.64703 12.1398 8.69366 12.4244 7.71833 12.4244C6.41162 12.423 5.15869 11.9119 4.23432 11.0031C3.30994 10.0944 2.78944 8.86211 2.78688 7.57642V7.57233Z" fill="black"/>
</svg>
